<?xml version="1.0" standalone="no"?>
<!DOCTYPE svg PUBLIC "-//W3C//DTD SVG 20010904//EN"
 "http://www.w3.org/TR/2001/REC-SVG-20010904/DTD/svg10.dtd">
<svg version="1.0" xmlns="http://www.w3.org/2000/svg"
 width="600.000000pt" height="600.000000pt" viewBox="0 0 600.000000 600.000000"
 preserveAspectRatio="xMidYMid meet">
<metadata>
Created by potrace 1.11, written by Peter Selinger 2001-2013
</metadata>
<g transform="translate(0.000000,600.000000) scale(0.100000,-0.100000)"
fill="#000000" stroke="none">
<path d="M2938 5541 l-2878 -286 0 -2542 0 -2543 2775 0 c1979 0 2775 3 2775
11 0 6 68 1268 150 2805 83 1537 150 2806 150 2820 0 22 -3 24 -47 23 -27 -1
-1343 -130 -2925 -288z m277 -981 c94 -6 249 -22 345 -36 166 -24 486 -87 498
-98 7 -8 -13 -545 -21 -553 -4 -3 -60 1 -124 10 -298 41 -421 51 -673 51 -276
1 -352 -9 -467 -60 -111 -49 -214 -200 -257 -377 -44 -177 -73 -622 -62 -937
19 -542 101 -773 310 -875 131 -64 170 -70 466 -70 146 1 324 6 395 13 142 14
344 39 387 48 26 5 26 4 32 -58 3 -35 7 -165 10 -290 l4 -227 -52 -11 c-361
-79 -822 -121 -1101 -101 -540 40 -812 197 -991 575 -131 277 -173 534 -181
1102 -5 369 3 567 33 774 94 650 303 941 767 1064 141 38 243 51 487 64 14 1
102 -3 195 -8z"/>
</g>
</svg>
