<svg version="1.1" xmlns="http://www.w3.org/2000/svg" x="0" y="0" viewBox="0 0 275.66 137.25" xml:space="preserve"><g fill="#fff"><path d="M14.21 97.8v-2.56h10.5v2.56h-3.78v11.72h-2.9V97.8h-3.82zM29.1 109.51h-2.81v-14.7h2.81v4.7c.97-.5 1.83-.76 2.6-.76 1.4 0 2.37.41 2.9 1.24.53.83.8 2.1.8 3.82v5.69h-2.81v-5.63c0-.88-.1-1.54-.31-1.96-.21-.43-.63-.64-1.26-.64-.55 0-1.09.08-1.64.25l-.27.08v7.91zM40.72 106.86c.33.29.8.43 1.42.43 1.3 0 2.46-.04 3.49-.13l.59-.06.04 2.08c-1.61.39-3.07.59-4.37.59-1.58 0-2.73-.42-3.44-1.26-.71-.84-1.07-2.21-1.07-4.1 0-3.77 1.55-5.65 4.64-5.65 3.05 0 4.58 1.58 4.58 4.75l-.21 1.95h-6.17c0 .65.17 1.11.5 1.4zm3.1-3.54c0-.84-.13-1.42-.4-1.75-.27-.33-.73-.49-1.4-.49s-1.13.17-1.41.51-.42.92-.43 1.73h3.64zM53.35 109.51v-14.7h2.81v14.7h-2.81zM58.9 97.67v-2.86h2.81v2.86H58.9zm0 11.84v-10.5h2.81v10.5H58.9zM67.63 101.41v8.11h-2.81v-8.11h-1.13v-2.39h1.13v-.46c0-1.51.22-2.55.67-3.13s1.25-.86 2.39-.86c.5 0 1.16.07 1.95.21l.44.06-.04 2.29c-.62-.03-1.13-.04-1.55-.04s-.7.11-.84.34c-.14.22-.21.61-.21 1.16v.44h2.54v2.39h-2.54zM74.55 106.86c.33.29.8.43 1.42.43 1.3 0 2.46-.04 3.49-.13l.59-.06.04 2.08c-1.61.39-3.07.59-4.37.59-1.58 0-2.73-.42-3.44-1.26-.71-.84-1.07-2.21-1.07-4.1 0-3.77 1.55-5.65 4.64-5.65 3.05 0 4.58 1.58 4.58 4.75l-.21 1.95h-6.17c0 .65.17 1.11.5 1.4zm3.1-3.54c0-.84-.13-1.42-.4-1.75-.27-.33-.73-.49-1.4-.49s-1.13.17-1.41.51-.42.92-.43 1.73h3.64zM82.56 109.51v-14.7h2.81v14.7h-2.81zM88.67 100.2c.74-.96 1.98-1.44 3.72-1.44s2.97.48 3.72 1.44 1.11 2.31 1.11 4.04c0 3.68-1.61 5.52-4.83 5.52s-4.83-1.84-4.83-5.52c0-1.73.37-3.08 1.11-4.04zm2.18 6.42c.29.5.8.76 1.54.76s1.26-.25 1.54-.76c.29-.5.43-1.29.43-2.37s-.14-1.86-.43-2.35-.8-.74-1.54-.74-1.26.25-1.54.74c-.29.49-.43 1.27-.43 2.35s.14 1.86.43 2.37zM102.09 109.51h-2.81v-10.5h2.79v.59c.95-.56 1.83-.84 2.63-.84 1.4 0 2.37.41 2.9 1.24.53.83.8 2.1.8 3.82v5.69h-2.81v-5.61c0-.9-.1-1.56-.31-1.98-.21-.43-.63-.64-1.26-.64-.57 0-1.13.1-1.66.29l-.25.08v7.86zM120.4 110.83c0 1.2-.46 2.08-1.39 2.66s-2.17.86-3.75.86-2.79-.21-3.63-.63c-.85-.42-1.27-1.18-1.27-2.29 0-.88.5-1.72 1.51-2.5-.52-.35-.78-.88-.78-1.6 0-.28.21-.74.63-1.39l.19-.29c-.95-.69-1.43-1.7-1.43-3.03s.4-2.31 1.21-2.91c.8-.6 1.87-.9 3.2-.9.6 0 1.2.07 1.78.21l.34.06 3.38-.1v2.25l-1.58-.13c.31.48.46.95.46 1.43 0 1.4-.36 2.37-1.07 2.9-.71.53-1.83.8-3.36.8-.32 0-.61-.03-.86-.08-.14.36-.21.66-.21.89 0 .23.12.39.36.47s.8.13 1.68.15c1.76.01 2.97.25 3.61.7.66.44.98 1.27.98 2.47zm-7.26.3c0 .6.74.9 2.22.9 1.48 0 2.22-.35 2.22-1.05 0-.38-.13-.62-.38-.72-.25-.1-.78-.17-1.6-.18l-1.89-.15c-.38.38-.57.78-.57 1.2zm.17-8.6c0 1.03.54 1.54 1.61 1.54s1.61-.51 1.61-1.54-.54-1.54-1.61-1.54c-1.08 0-1.61.51-1.61 1.54zM121.77 105.21v-2.56h6.22v2.56h-6.22zM130.59 109.51v-14.7h2.81v14.7h-2.81zM138.96 106.86c.33.29.8.43 1.42.43 1.3 0 2.46-.04 3.49-.13l.59-.06.04 2.08c-1.61.39-3.07.59-4.37.59-1.58 0-2.73-.42-3.44-1.26-.71-.84-1.07-2.21-1.07-4.1 0-3.77 1.55-5.65 4.64-5.65 3.05 0 4.58 1.58 4.58 4.75l-.21 1.95h-6.17c0 .65.17 1.11.5 1.4zm3.09-3.54c0-.84-.13-1.42-.4-1.75-.27-.33-.73-.49-1.4-.49s-1.13.17-1.41.51-.42.92-.43 1.73h3.64zM154.89 102.29v4.37c.03.34.08.57.17.7s.26.23.53.28l-.08 2.12c-.71 0-1.29-.05-1.71-.15s-.86-.29-1.29-.59c-1.01.49-2.04.74-3.09.74-2.17 0-3.25-1.15-3.25-3.44 0-1.12.3-1.91.9-2.38.6-.47 1.53-.75 2.77-.83l2.25-.17v-.65c0-.43-.1-.73-.29-.89-.2-.16-.51-.24-.95-.24l-3.95.17-.08-1.95c1.5-.41 2.92-.61 4.27-.61 1.35 0 2.32.28 2.92.84.58.55.88 1.45.88 2.68zm-4.73 2.77c-.78.07-1.18.49-1.18 1.26s.34 1.16 1.03 1.16c.53 0 1.11-.08 1.74-.25l.32-.08v-2.25l-1.91.16zM157.57 109.51v-10.5h2.79v1.11c1.18-.7 2.3-1.15 3.36-1.36v2.83c-1.13.24-2.11.48-2.92.73l-.42.15v7.04h-2.81zM168.2 109.51h-2.81v-10.5h2.79v.59c.95-.56 1.83-.84 2.63-.84 1.4 0 2.37.41 2.9 1.24.53.83.8 2.1.8 3.82v5.69h-2.81v-5.61c0-.9-.1-1.56-.31-1.98-.21-.43-.63-.64-1.26-.64-.57 0-1.13.1-1.66.29l-.25.08v7.86zM177 97.67v-2.86h2.81v2.86H177zm0 11.84v-10.5h2.81v10.5H177zM185.23 109.51h-2.81v-10.5h2.79v.59c.95-.56 1.83-.84 2.63-.84 1.4 0 2.37.41 2.9 1.24.53.83.8 2.1.8 3.82v5.69h-2.81v-5.61c0-.9-.1-1.56-.31-1.98-.21-.43-.63-.64-1.26-.64-.57 0-1.13.1-1.66.29l-.25.08v7.86zM203.54 110.83c0 1.2-.46 2.08-1.39 2.66s-2.17.86-3.75.86-2.79-.21-3.63-.63c-.85-.42-1.27-1.18-1.27-2.29 0-.88.5-1.72 1.51-2.5-.52-.35-.78-.88-.78-1.6 0-.28.21-.74.63-1.39l.19-.29c-.95-.69-1.43-1.7-1.43-3.03s.4-2.31 1.21-2.91c.8-.6 1.87-.9 3.2-.9.6 0 1.2.07 1.78.21l.34.06 3.38-.1v2.25l-1.58-.13c.31.48.46.95.46 1.43 0 1.4-.36 2.37-1.07 2.9-.71.53-1.83.8-3.36.8-.32 0-.61-.03-.86-.08-.14.36-.21.66-.21.89 0 .23.12.39.36.47s.8.13 1.68.15c1.76.01 2.97.25 3.61.7.66.44.98 1.27.98 2.47zm-7.26.3c0 .6.74.9 2.22.9 1.48 0 2.22-.35 2.22-1.05 0-.38-.13-.62-.38-.72-.25-.1-.78-.17-1.6-.18l-1.89-.15c-.38.38-.57.78-.57 1.2zm.16-8.6c0 1.03.54 1.54 1.61 1.54s1.61-.51 1.61-1.54-.54-1.54-1.61-1.54-1.61.51-1.61 1.54zM19.16 119.96c.73 0 1.66.11 2.79.34l.57.13-.08 2.23c-1.11-.11-1.92-.17-2.46-.17-.97 0-1.61.21-1.92.62-.32.41-.47 1.19-.47 2.34s.16 1.94.47 2.36c.31.43.96.64 1.94.64l2.44-.17.08 2.25c-1.5.29-2.64.44-3.42.44-1.55 0-2.67-.44-3.35-1.31s-1.02-2.28-1.02-4.21c0-1.93.35-3.33 1.05-4.19.7-.87 1.83-1.3 3.38-1.3zM25.09 121.4c.74-.96 1.98-1.44 3.72-1.44s2.97.48 3.72 1.44c.74.96 1.11 2.31 1.11 4.04 0 3.68-1.61 5.52-4.83 5.52s-4.83-1.84-4.83-5.52c-.01-1.73.36-3.08 1.11-4.04zm2.17 6.42c.29.5.8.76 1.54.76s1.26-.25 1.54-.76c.29-.5.43-1.29.43-2.37s-.14-1.86-.43-2.35-.8-.74-1.54-.74-1.26.25-1.54.74c-.29.49-.43 1.27-.43 2.35s.14 1.86.43 2.37zM38.5 130.71h-2.81v-10.5h2.79v.59c.95-.56 1.83-.84 2.63-.84 1.4 0 2.37.41 2.9 1.24.53.83.8 2.1.8 3.82v5.69H42v-5.61c0-.9-.1-1.56-.31-1.98-.21-.43-.63-.64-1.26-.64-.57 0-1.13.1-1.66.29l-.25.08v7.86zM50.62 122.61v8.11h-2.81v-8.11h-1.13v-2.39h1.13v-.46c0-1.51.22-2.55.67-3.13s1.25-.86 2.39-.86c.5 0 1.16.07 1.95.21l.44.06-.04 2.29c-.62-.03-1.13-.04-1.55-.04s-.7.11-.84.34c-.14.22-.21.61-.21 1.16v.44h2.54v2.39h-2.54zM57.54 128.06c.33.29.8.43 1.42.43 1.3 0 2.46-.04 3.49-.13l.59-.06.04 2.08c-1.61.39-3.07.59-4.37.59-1.58 0-2.73-.42-3.44-1.26-.71-.84-1.07-2.21-1.07-4.1 0-3.77 1.55-5.65 4.64-5.65 3.05 0 4.58 1.58 4.58 4.75l-.21 1.95h-6.17c0 .65.17 1.11.5 1.4zm3.1-3.54c0-.84-.13-1.42-.4-1.75-.27-.33-.73-.49-1.4-.49s-1.13.17-1.41.51-.42.92-.43 1.73h3.64zM65.43 130.71v-10.5h2.79v1.11c1.18-.7 2.3-1.15 3.36-1.36v2.83c-1.13.24-2.11.48-2.92.73l-.42.15v7.04h-2.81zM76.06 128.06c.33.29.8.43 1.42.43 1.3 0 2.46-.04 3.49-.13l.59-.06.04 2.08c-1.61.39-3.07.59-4.37.59-1.58 0-2.73-.42-3.44-1.26-.71-.84-1.07-2.21-1.07-4.1 0-3.77 1.55-5.65 4.64-5.65 3.05 0 4.58 1.58 4.58 4.75l-.21 1.95h-6.17c0 .65.17 1.11.5 1.4zm3.1-3.54c0-.84-.13-1.42-.4-1.75-.27-.33-.73-.49-1.4-.49s-1.13.17-1.41.51-.42.92-.43 1.73h3.64zM86.76 130.71h-2.81v-10.5h2.79v.59c.95-.56 1.83-.84 2.63-.84 1.4 0 2.37.41 2.9 1.24.53.83.8 2.1.8 3.82v5.69h-2.81v-5.61c0-.9-.1-1.56-.31-1.98-.21-.43-.63-.64-1.26-.64-.57 0-1.13.1-1.66.29l-.25.08v7.86zM99.49 119.96c.73 0 1.66.11 2.79.34l.57.13-.08 2.23c-1.11-.11-1.92-.17-2.46-.17-.97 0-1.61.21-1.92.62-.32.41-.47 1.19-.47 2.34s.16 1.94.47 2.36c.31.43.96.64 1.94.64l2.44-.17.08 2.25c-1.5.29-2.64.44-3.42.44-1.55 0-2.67-.44-3.35-1.31s-1.02-2.28-1.02-4.21c0-1.93.35-3.33 1.05-4.19.7-.87 1.82-1.3 3.38-1.3zM107.67 128.06c.33.29.8.43 1.42.43 1.3 0 2.46-.04 3.49-.13l.59-.06.04 2.08c-1.61.39-3.07.59-4.37.59-1.58 0-2.73-.42-3.44-1.26-.71-.84-1.07-2.21-1.07-4.1 0-3.77 1.55-5.65 4.64-5.65 3.05 0 4.58 1.58 4.58 4.75l-.21 1.95h-6.17c0 .65.17 1.11.5 1.4zm3.1-3.54c0-.84-.13-1.42-.4-1.75-.27-.33-.73-.49-1.4-.49s-1.13.17-1.41.51-.42.92-.43 1.73h3.64z"/></g><path fill="#d1ea3f" d="M0 14.64l275.66-8.22-14.31 80.22H0z"/><g fill="#fff"><path d="M45.35 74.45c-5.09 1.1-9.67 1.66-13.75 1.66s-7.34-.5-9.79-1.51c-2.45-1.01-4.37-2.62-5.76-4.82-1.39-2.21-2.35-4.8-2.88-7.78-.53-2.98-.79-6.72-.79-11.23 0-9.46 1.33-16.04 4-19.76 2.66-3.72 7.57-5.58 14.72-5.58 4.13 0 8.9.65 14.33 1.94l-.29 7.92c-4.75-.72-8.7-1.08-11.84-1.08-3.14 0-5.39.42-6.73 1.26-1.34.84-2.34 2.44-2.99 4.79-.65 2.35-.97 6.36-.97 12.02 0 5.66.66 9.59 1.98 11.77 1.32 2.18 3.96 3.28 7.92 3.28s8.17-.34 12.64-1.01l.2 8.13zM52.98 75.25v-50.4h9.65v50.4h-9.65zM93.23 39.24h9.65v36H93.3v-2.02c-3.46 1.92-6.46 2.88-9 2.88-4.99 0-8.35-1.38-10.08-4.14-1.73-2.76-2.59-7.38-2.59-13.86V39.24h9.65v19.01c0 3.55.29 5.98.86 7.27.58 1.3 1.97 1.94 4.18 1.94 2.11 0 4.1-.34 5.98-1.01l.94-.29V39.24zM121.49 66.14c1.13.98 2.75 1.48 4.86 1.48 4.46 0 8.45-.14 11.95-.43l2.02-.22.14 7.13c-5.52 1.34-10.51 2.02-14.98 2.02-5.42 0-9.36-1.44-11.81-4.32-2.45-2.88-3.67-7.56-3.67-14.04 0-12.91 5.3-19.37 15.91-19.37 10.46 0 15.7 5.42 15.7 16.27l-.72 6.7h-21.17c.05 2.2.64 3.79 1.77 4.78zM132.11 54c0-2.88-.46-4.88-1.37-6.01-.91-1.13-2.51-1.69-4.79-1.69-2.28 0-3.89.59-4.82 1.76-.94 1.18-1.43 3.16-1.48 5.94h12.46zM179.12 24.84v50.4h-9.58v-1.51c-3.36 1.58-6.26 2.38-8.71 2.38-5.23 0-8.88-1.51-10.94-4.54-2.06-3.02-3.1-7.81-3.1-14.36s1.24-11.33 3.71-14.33c2.47-3 6.2-4.5 11.2-4.5 1.54 0 3.67.24 6.41.72l1.37.29V24.84h9.64zM168.47 66.6l1.01-.22V47.45c-2.64-.48-4.99-.72-7.06-.72-3.89 0-5.83 3.46-5.83 10.37 0 3.74.43 6.41 1.3 7.99s2.29 2.38 4.28 2.38c1.99 0 4.09-.29 6.3-.87z"/></g><g fill="#fff"><path d="M208.81 24.91h5.4v36h-5.4v-2.52c-3.6 2.16-7.15 3.24-10.66 3.24-4.9 0-8.15-1.27-9.76-3.82-1.61-2.54-2.41-7.25-2.41-14.11V24.91h5.4v18.72c0 5.23.46 8.74 1.37 10.51.91 1.78 2.98 2.66 6.19 2.66 1.58 0 3.19-.23 4.82-.68 1.63-.46 2.88-.9 3.74-1.33l1.3-.65V24.91zM221.69 76.9V24.91h5.33v2.59c3.65-2.21 7.25-3.31 10.8-3.31 4.56 0 7.87 1.45 9.94 4.36 2.06 2.9 3.1 7.69 3.1 14.36 0 6.67-1.21 11.46-3.64 14.36-2.42 2.9-6.44 4.36-12.06 4.36-2.93 0-5.62-.26-8.06-.79V76.9h-5.41zm15.34-47.88c-1.44 0-2.99.24-4.64.72-1.66.48-2.96.96-3.92 1.44l-1.37.72v24.26c3.41.53 6 .79 7.78.79 3.89 0 6.61-1.1 8.17-3.31 1.56-2.21 2.34-5.81 2.34-10.8 0-4.99-.71-8.54-2.12-10.66-1.43-2.11-3.5-3.16-6.24-3.16z"/></g><g fill="#fff"><path d="M252.65 25.75v-.98h4v.98h-1.44v4.46h-1.1v-4.46h-1.46zM257.34 30.22v-5.44h1.88l.96 3.97.96-3.97h1.88v5.44h-1.1v-4.21h-.12l-1.06 3.97h-1.1l-1.06-3.97h-.12v4.21h-1.12z"/></g></svg>