<?xml version="1.0" encoding="utf-8"?>
<!-- Generator: Adobe Illustrator 23.0.3, SVG Export Plug-In . SVG Version: 6.00 Build 0)  -->
<svg version="1.1" id="Layer_1" xmlns="http://www.w3.org/2000/svg" xmlns:xlink="http://www.w3.org/1999/xlink" x="0px" y="0px"
	 viewBox="0 0 275.66 137.25" style="enable-background:new 0 0 275.66 137.25;" xml:space="preserve">
<g>
	<path style="fill:#FFFFFF;" d="M14.21,97.8v-2.56h10.5v2.56h-3.78v11.72h-2.9V97.8H14.21z"/>
	<path style="fill:#FFFFFF;" d="M29.1,109.51h-2.81v-14.7h2.81v4.7c0.97-0.5,1.83-0.76,2.6-0.76c1.4,0,2.37,0.41,2.9,1.24
		c0.53,0.83,0.8,2.1,0.8,3.82v5.69h-2.81v-5.63c0-0.88-0.1-1.54-0.31-1.96c-0.21-0.43-0.63-0.64-1.26-0.64
		c-0.55,0-1.09,0.08-1.64,0.25l-0.27,0.08V109.51z"/>
	<path style="fill:#FFFFFF;" d="M40.72,106.86c0.33,0.29,0.8,0.43,1.42,0.43c1.3,0,2.46-0.04,3.49-0.13l0.59-0.06l0.04,2.08
		c-1.61,0.39-3.07,0.59-4.37,0.59c-1.58,0-2.73-0.42-3.44-1.26c-0.71-0.84-1.07-2.21-1.07-4.1c0-3.77,1.55-5.65,4.64-5.65
		c3.05,0,4.58,1.58,4.58,4.75l-0.21,1.95h-6.17C40.22,106.11,40.39,106.57,40.72,106.86z M43.82,103.32c0-0.84-0.13-1.42-0.4-1.75
		c-0.27-0.33-0.73-0.49-1.4-0.49s-1.13,0.17-1.41,0.51s-0.42,0.92-0.43,1.73H43.82z"/>
	<path style="fill:#FFFFFF;" d="M53.35,109.51v-14.7h2.81v14.7H53.35z"/>
	<path style="fill:#FFFFFF;" d="M58.9,97.67v-2.86h2.81v2.86H58.9z M58.9,109.51v-10.5h2.81v10.5H58.9z"/>
	<path style="fill:#FFFFFF;" d="M67.63,101.41v8.11h-2.81v-8.11h-1.13v-2.39h1.13v-0.46c0-1.51,0.22-2.55,0.67-3.13
		s1.25-0.86,2.39-0.86c0.5,0,1.16,0.07,1.95,0.21l0.44,0.06l-0.04,2.29c-0.62-0.03-1.13-0.04-1.55-0.04s-0.7,0.11-0.84,0.34
		c-0.14,0.22-0.21,0.61-0.21,1.16v0.44h2.54v2.39H67.63z"/>
	<path style="fill:#FFFFFF;" d="M74.55,106.86c0.33,0.29,0.8,0.43,1.42,0.43c1.3,0,2.46-0.04,3.49-0.13l0.59-0.06l0.04,2.08
		c-1.61,0.39-3.07,0.59-4.37,0.59c-1.58,0-2.73-0.42-3.44-1.26c-0.71-0.84-1.07-2.21-1.07-4.1c0-3.77,1.55-5.65,4.64-5.65
		c3.05,0,4.58,1.58,4.58,4.75l-0.21,1.95h-6.17C74.05,106.11,74.22,106.57,74.55,106.86z M77.65,103.32c0-0.84-0.13-1.42-0.4-1.75
		c-0.27-0.33-0.73-0.49-1.4-0.49s-1.13,0.17-1.41,0.51s-0.42,0.92-0.43,1.73H77.65z"/>
	<path style="fill:#FFFFFF;" d="M82.56,109.51v-14.7h2.81v14.7H82.56z"/>
	<path style="fill:#FFFFFF;" d="M88.67,100.2c0.74-0.96,1.98-1.44,3.72-1.44s2.97,0.48,3.72,1.44s1.11,2.31,1.11,4.04
		c0,3.68-1.61,5.52-4.83,5.52s-4.83-1.84-4.83-5.52C87.56,102.51,87.93,101.16,88.67,100.2z M90.85,106.62
		c0.29,0.5,0.8,0.76,1.54,0.76s1.26-0.25,1.54-0.76c0.29-0.5,0.43-1.29,0.43-2.37s-0.14-1.86-0.43-2.35
		c-0.29-0.49-0.8-0.74-1.54-0.74s-1.26,0.25-1.54,0.74c-0.29,0.49-0.43,1.27-0.43,2.35S90.56,106.11,90.85,106.62z"/>
	<path style="fill:#FFFFFF;" d="M102.09,109.51h-2.81v-10.5h2.79v0.59c0.95-0.56,1.83-0.84,2.63-0.84c1.4,0,2.37,0.41,2.9,1.24
		c0.53,0.83,0.8,2.1,0.8,3.82v5.69h-2.81v-5.61c0-0.9-0.1-1.56-0.31-1.98c-0.21-0.43-0.63-0.64-1.26-0.64
		c-0.57,0-1.13,0.1-1.66,0.29l-0.25,0.08V109.51z"/>
	<path style="fill:#FFFFFF;" d="M120.4,110.83c0,1.2-0.46,2.08-1.39,2.66s-2.17,0.86-3.75,0.86s-2.79-0.21-3.63-0.63
		c-0.85-0.42-1.27-1.18-1.27-2.29c0-0.88,0.5-1.72,1.51-2.5c-0.52-0.35-0.78-0.88-0.78-1.6c0-0.28,0.21-0.74,0.63-1.39l0.19-0.29
		c-0.95-0.69-1.43-1.7-1.43-3.03s0.4-2.31,1.21-2.91c0.8-0.6,1.87-0.9,3.2-0.9c0.6,0,1.2,0.07,1.78,0.21l0.34,0.06l3.38-0.1v2.25
		l-1.58-0.13c0.31,0.48,0.46,0.95,0.46,1.43c0,1.4-0.36,2.37-1.07,2.9c-0.71,0.53-1.83,0.8-3.36,0.8c-0.32,0-0.61-0.03-0.86-0.08
		c-0.14,0.36-0.21,0.66-0.21,0.89c0,0.23,0.12,0.39,0.36,0.47s0.8,0.13,1.68,0.15c1.76,0.01,2.97,0.25,3.61,0.7
		C120.08,108.8,120.4,109.63,120.4,110.83z M113.14,111.13c0,0.6,0.74,0.9,2.22,0.9c1.48,0,2.22-0.35,2.22-1.05
		c0-0.38-0.13-0.62-0.38-0.72c-0.25-0.1-0.78-0.17-1.6-0.18l-1.89-0.15C113.33,110.31,113.14,110.71,113.14,111.13z M113.31,102.53
		c0,1.03,0.54,1.54,1.61,1.54c1.07,0,1.61-0.51,1.61-1.54c0-1.03-0.54-1.54-1.61-1.54C113.84,100.99,113.31,101.5,113.31,102.53z"/>
	<path style="fill:#FFFFFF;" d="M121.77,105.21v-2.56h6.22v2.56H121.77z"/>
	<path style="fill:#FFFFFF;" d="M130.59,109.51v-14.7h2.81v14.7H130.59z"/>
	<path style="fill:#FFFFFF;" d="M138.96,106.86c0.33,0.29,0.8,0.43,1.42,0.43c1.3,0,2.46-0.04,3.49-0.13l0.59-0.06l0.04,2.08
		c-1.61,0.39-3.07,0.59-4.37,0.59c-1.58,0-2.73-0.42-3.44-1.26c-0.71-0.84-1.07-2.21-1.07-4.1c0-3.77,1.55-5.65,4.64-5.65
		c3.05,0,4.58,1.58,4.58,4.75l-0.21,1.95h-6.17C138.46,106.11,138.63,106.57,138.96,106.86z M142.05,103.32
		c0-0.84-0.13-1.42-0.4-1.75c-0.27-0.33-0.73-0.49-1.4-0.49s-1.13,0.17-1.41,0.51s-0.42,0.92-0.43,1.73H142.05z"/>
	<path style="fill:#FFFFFF;" d="M154.89,102.29v4.37c0.03,0.34,0.08,0.57,0.17,0.7s0.26,0.23,0.53,0.28l-0.08,2.12
		c-0.71,0-1.29-0.05-1.71-0.15s-0.86-0.29-1.29-0.59c-1.01,0.49-2.04,0.74-3.09,0.74c-2.17,0-3.25-1.15-3.25-3.44
		c0-1.12,0.3-1.91,0.9-2.38c0.6-0.47,1.53-0.75,2.77-0.83l2.25-0.17v-0.65c0-0.43-0.1-0.73-0.29-0.89c-0.2-0.16-0.51-0.24-0.95-0.24
		l-3.95,0.17l-0.08-1.95c1.5-0.41,2.92-0.61,4.27-0.61c1.35,0,2.32,0.28,2.92,0.84C154.59,100.16,154.89,101.06,154.89,102.29z
		 M150.16,105.06c-0.78,0.07-1.18,0.49-1.18,1.26c0,0.77,0.34,1.16,1.03,1.16c0.53,0,1.11-0.08,1.74-0.25l0.32-0.08v-2.25
		L150.16,105.06z"/>
	<path style="fill:#FFFFFF;" d="M157.57,109.51v-10.5h2.79v1.11c1.18-0.7,2.3-1.15,3.36-1.36v2.83c-1.13,0.24-2.11,0.48-2.92,0.73
		l-0.42,0.15v7.04H157.57z"/>
	<path style="fill:#FFFFFF;" d="M168.2,109.51h-2.81v-10.5h2.79v0.59c0.95-0.56,1.83-0.84,2.63-0.84c1.4,0,2.37,0.41,2.9,1.24
		c0.53,0.83,0.8,2.1,0.8,3.82v5.69h-2.81v-5.61c0-0.9-0.1-1.56-0.31-1.98c-0.21-0.43-0.63-0.64-1.26-0.64
		c-0.57,0-1.13,0.1-1.66,0.29l-0.25,0.08V109.51z"/>
	<path style="fill:#FFFFFF;" d="M177,97.67v-2.86h2.81v2.86H177z M177,109.51v-10.5h2.81v10.5H177z"/>
	<path style="fill:#FFFFFF;" d="M185.23,109.51h-2.81v-10.5h2.79v0.59c0.95-0.56,1.83-0.84,2.63-0.84c1.4,0,2.37,0.41,2.9,1.24
		c0.53,0.83,0.8,2.1,0.8,3.82v5.69h-2.81v-5.61c0-0.9-0.1-1.56-0.31-1.98c-0.21-0.43-0.63-0.64-1.26-0.64
		c-0.57,0-1.13,0.1-1.66,0.29l-0.25,0.08V109.51z"/>
	<path style="fill:#FFFFFF;" d="M203.54,110.83c0,1.2-0.46,2.08-1.39,2.66s-2.17,0.86-3.75,0.86s-2.79-0.21-3.63-0.63
		c-0.85-0.42-1.27-1.18-1.27-2.29c0-0.88,0.5-1.72,1.51-2.5c-0.52-0.35-0.78-0.88-0.78-1.6c0-0.28,0.21-0.74,0.63-1.39l0.19-0.29
		c-0.95-0.69-1.43-1.7-1.43-3.03s0.4-2.31,1.21-2.91c0.8-0.6,1.87-0.9,3.2-0.9c0.6,0,1.2,0.07,1.78,0.21l0.34,0.06l3.38-0.1v2.25
		l-1.58-0.13c0.31,0.48,0.46,0.95,0.46,1.43c0,1.4-0.36,2.37-1.07,2.9c-0.71,0.53-1.83,0.8-3.36,0.8c-0.32,0-0.61-0.03-0.86-0.08
		c-0.14,0.36-0.21,0.66-0.21,0.89c0,0.23,0.12,0.39,0.36,0.47s0.8,0.13,1.68,0.15c1.76,0.01,2.97,0.25,3.61,0.7
		C203.22,108.8,203.54,109.63,203.54,110.83z M196.28,111.13c0,0.6,0.74,0.9,2.22,0.9c1.48,0,2.22-0.35,2.22-1.05
		c0-0.38-0.13-0.62-0.38-0.72c-0.25-0.1-0.78-0.17-1.6-0.18l-1.89-0.15C196.47,110.31,196.28,110.71,196.28,111.13z M196.44,102.53
		c0,1.03,0.54,1.54,1.61,1.54c1.07,0,1.61-0.51,1.61-1.54c0-1.03-0.54-1.54-1.61-1.54C196.98,100.99,196.44,101.5,196.44,102.53z"/>
	<path style="fill:#FFFFFF;" d="M19.16,119.96c0.73,0,1.66,0.11,2.79,0.34l0.57,0.13l-0.08,2.23c-1.11-0.11-1.92-0.17-2.46-0.17
		c-0.97,0-1.61,0.21-1.92,0.62c-0.32,0.41-0.47,1.19-0.47,2.34c0,1.15,0.16,1.94,0.47,2.36c0.31,0.43,0.96,0.64,1.94,0.64l2.44-0.17
		l0.08,2.25c-1.5,0.29-2.64,0.44-3.42,0.44c-1.55,0-2.67-0.44-3.35-1.31s-1.02-2.28-1.02-4.21c0-1.93,0.35-3.33,1.05-4.19
		C16.48,120.39,17.61,119.96,19.16,119.96z"/>
	<path style="fill:#FFFFFF;" d="M25.09,121.4c0.74-0.96,1.98-1.44,3.72-1.44s2.97,0.48,3.72,1.44c0.74,0.96,1.11,2.31,1.11,4.04
		c0,3.68-1.61,5.52-4.83,5.52s-4.83-1.84-4.83-5.52C23.97,123.71,24.34,122.36,25.09,121.4z M27.26,127.82
		c0.29,0.5,0.8,0.76,1.54,0.76s1.26-0.25,1.54-0.76c0.29-0.5,0.43-1.29,0.43-2.37s-0.14-1.86-0.43-2.35
		c-0.29-0.49-0.8-0.74-1.54-0.74s-1.26,0.25-1.54,0.74c-0.29,0.49-0.43,1.27-0.43,2.35S26.97,127.31,27.26,127.82z"/>
	<path style="fill:#FFFFFF;" d="M38.5,130.71h-2.81v-10.5h2.79v0.59c0.95-0.56,1.83-0.84,2.63-0.84c1.4,0,2.37,0.41,2.9,1.24
		c0.53,0.83,0.8,2.1,0.8,3.82v5.69h-2.81v-5.61c0-0.9-0.1-1.56-0.31-1.98c-0.21-0.43-0.63-0.64-1.26-0.64
		c-0.57,0-1.13,0.1-1.66,0.29l-0.25,0.08V130.71z"/>
	<path style="fill:#FFFFFF;" d="M50.62,122.61v8.11h-2.81v-8.11h-1.13v-2.39h1.13v-0.46c0-1.51,0.22-2.55,0.67-3.13
		s1.25-0.86,2.39-0.86c0.5,0,1.16,0.07,1.95,0.21l0.44,0.06l-0.04,2.29c-0.62-0.03-1.13-0.04-1.55-0.04s-0.7,0.11-0.84,0.34
		c-0.14,0.22-0.21,0.61-0.21,1.16v0.44h2.54v2.39H50.62z"/>
	<path style="fill:#FFFFFF;" d="M57.54,128.06c0.33,0.29,0.8,0.43,1.42,0.43c1.3,0,2.46-0.04,3.49-0.13l0.59-0.06l0.04,2.08
		c-1.61,0.39-3.07,0.59-4.37,0.59c-1.58,0-2.73-0.42-3.44-1.26c-0.71-0.84-1.07-2.21-1.07-4.1c0-3.77,1.55-5.65,4.64-5.65
		c3.05,0,4.58,1.58,4.58,4.75l-0.21,1.95h-6.17C57.04,127.31,57.21,127.77,57.54,128.06z M60.64,124.52c0-0.84-0.13-1.42-0.4-1.75
		c-0.27-0.33-0.73-0.49-1.4-0.49s-1.13,0.17-1.41,0.51s-0.42,0.92-0.43,1.73H60.64z"/>
	<path style="fill:#FFFFFF;" d="M65.43,130.71v-10.5h2.79v1.11c1.18-0.7,2.3-1.15,3.36-1.36v2.83c-1.13,0.24-2.11,0.48-2.92,0.73
		l-0.42,0.15v7.04H65.43z"/>
	<path style="fill:#FFFFFF;" d="M76.06,128.06c0.33,0.29,0.8,0.43,1.42,0.43c1.3,0,2.46-0.04,3.49-0.13l0.59-0.06l0.04,2.08
		c-1.61,0.39-3.07,0.59-4.37,0.59c-1.58,0-2.73-0.42-3.44-1.26c-0.71-0.84-1.07-2.21-1.07-4.1c0-3.77,1.55-5.65,4.64-5.65
		c3.05,0,4.58,1.58,4.58,4.75l-0.21,1.95h-6.17C75.56,127.31,75.73,127.77,76.06,128.06z M79.16,124.52c0-0.84-0.13-1.42-0.4-1.75
		c-0.27-0.33-0.73-0.49-1.4-0.49s-1.13,0.17-1.41,0.51s-0.42,0.92-0.43,1.73H79.16z"/>
	<path style="fill:#FFFFFF;" d="M86.76,130.71h-2.81v-10.5h2.79v0.59c0.95-0.56,1.83-0.84,2.63-0.84c1.4,0,2.37,0.41,2.9,1.24
		c0.53,0.83,0.8,2.1,0.8,3.82v5.69h-2.81v-5.61c0-0.9-0.1-1.56-0.31-1.98c-0.21-0.43-0.63-0.64-1.26-0.64
		c-0.57,0-1.13,0.1-1.66,0.29l-0.25,0.08V130.71z"/>
	<path style="fill:#FFFFFF;" d="M99.49,119.96c0.73,0,1.66,0.11,2.79,0.34l0.57,0.13l-0.08,2.23c-1.11-0.11-1.92-0.17-2.46-0.17
		c-0.97,0-1.61,0.21-1.92,0.62c-0.32,0.41-0.47,1.19-0.47,2.34c0,1.15,0.16,1.94,0.47,2.36c0.31,0.43,0.96,0.64,1.94,0.64l2.44-0.17
		l0.08,2.25c-1.5,0.29-2.64,0.44-3.42,0.44c-1.55,0-2.67-0.44-3.35-1.31s-1.02-2.28-1.02-4.21c0-1.93,0.35-3.33,1.05-4.19
		C96.81,120.39,97.93,119.96,99.49,119.96z"/>
	<path style="fill:#FFFFFF;" d="M107.67,128.06c0.33,0.29,0.8,0.43,1.42,0.43c1.3,0,2.46-0.04,3.49-0.13l0.59-0.06l0.04,2.08
		c-1.61,0.39-3.07,0.59-4.37,0.59c-1.58,0-2.73-0.42-3.44-1.26c-0.71-0.84-1.07-2.21-1.07-4.1c0-3.77,1.55-5.65,4.64-5.65
		c3.05,0,4.58,1.58,4.58,4.75l-0.21,1.95h-6.17C107.17,127.31,107.34,127.77,107.67,128.06z M110.77,124.52
		c0-0.84-0.13-1.42-0.4-1.75c-0.27-0.33-0.73-0.49-1.4-0.49s-1.13,0.17-1.41,0.51s-0.42,0.92-0.43,1.73H110.77z"/>
</g>
<polygon style="fill:#D1EA3F;" points="0,14.64 275.66,6.42 261.35,86.64 0,86.64 "/>
<g>
	<path style="fill:#FFFFFF;" d="M45.35,74.45c-5.09,1.1-9.67,1.66-13.75,1.66c-4.08,0-7.34-0.5-9.79-1.51
		c-2.45-1.01-4.37-2.62-5.76-4.82c-1.39-2.21-2.35-4.8-2.88-7.78c-0.53-2.98-0.79-6.72-0.79-11.23c0-9.46,1.33-16.04,4-19.76
		c2.66-3.72,7.57-5.58,14.72-5.58c4.13,0,8.9,0.65,14.33,1.94l-0.29,7.92c-4.75-0.72-8.7-1.08-11.84-1.08
		c-3.14,0-5.39,0.42-6.73,1.26c-1.34,0.84-2.34,2.44-2.99,4.79c-0.65,2.35-0.97,6.36-0.97,12.02c0,5.66,0.66,9.59,1.98,11.77
		c1.32,2.18,3.96,3.28,7.92,3.28s8.17-0.34,12.64-1.01L45.35,74.45z"/>
	<path style="fill:#FFFFFF;" d="M52.98,75.25v-50.4h9.65v50.4H52.98z"/>
	<path style="fill:#FFFFFF;" d="M93.23,39.24h9.65v36H93.3v-2.02c-3.46,1.92-6.46,2.88-9,2.88c-4.99,0-8.35-1.38-10.08-4.14
		c-1.73-2.76-2.59-7.38-2.59-13.86V39.24h9.65v19.01c0,3.55,0.29,5.98,0.86,7.27c0.58,1.3,1.97,1.94,4.18,1.94
		c2.11,0,4.1-0.34,5.98-1.01l0.94-0.29V39.24z"/>
	<path style="fill:#FFFFFF;" d="M121.49,66.14c1.13,0.98,2.75,1.48,4.86,1.48c4.46,0,8.45-0.14,11.95-0.43l2.02-0.22l0.14,7.13
		c-5.52,1.34-10.51,2.02-14.98,2.02c-5.42,0-9.36-1.44-11.81-4.32c-2.45-2.88-3.67-7.56-3.67-14.04c0-12.91,5.3-19.37,15.91-19.37
		c10.46,0,15.7,5.42,15.7,16.27l-0.72,6.7h-21.17C119.77,63.56,120.36,65.15,121.49,66.14z M132.11,54c0-2.88-0.46-4.88-1.37-6.01
		c-0.91-1.13-2.51-1.69-4.79-1.69c-2.28,0-3.89,0.59-4.82,1.76c-0.94,1.18-1.43,3.16-1.48,5.94H132.11z"/>
	<path style="fill:#FFFFFF;" d="M179.12,24.84v50.4h-9.58v-1.51c-3.36,1.58-6.26,2.38-8.71,2.38c-5.23,0-8.88-1.51-10.94-4.54
		c-2.06-3.02-3.1-7.81-3.1-14.36c0-6.55,1.24-11.33,3.71-14.33c2.47-3,6.2-4.5,11.2-4.5c1.54,0,3.67,0.24,6.41,0.72l1.37,0.29V24.84
		H179.12z M168.47,66.6l1.01-0.22V47.45c-2.64-0.48-4.99-0.72-7.06-0.72c-3.89,0-5.83,3.46-5.83,10.37c0,3.74,0.43,6.41,1.3,7.99
		s2.29,2.38,4.28,2.38C164.16,67.47,166.26,67.18,168.47,66.6z"/>
</g>
<g>
	<path style="fill:#FFFFFF;" d="M208.81,24.91h5.4v36h-5.4v-2.52c-3.6,2.16-7.15,3.24-10.66,3.24c-4.9,0-8.15-1.27-9.76-3.82
		c-1.61-2.54-2.41-7.25-2.41-14.11V24.91h5.4v18.72c0,5.23,0.46,8.74,1.37,10.51c0.91,1.78,2.98,2.66,6.19,2.66
		c1.58,0,3.19-0.23,4.82-0.68c1.63-0.46,2.88-0.9,3.74-1.33l1.3-0.65V24.91z"/>
	<path style="fill:#FFFFFF;" d="M221.69,76.9V24.91h5.33v2.59c3.65-2.21,7.25-3.31,10.8-3.31c4.56,0,7.87,1.45,9.94,4.36
		c2.06,2.9,3.1,7.69,3.1,14.36c0,6.67-1.21,11.46-3.64,14.36c-2.42,2.9-6.44,4.36-12.06,4.36c-2.93,0-5.62-0.26-8.06-0.79V76.9
		H221.69z M237.03,29.02c-1.44,0-2.99,0.24-4.64,0.72c-1.66,0.48-2.96,0.96-3.92,1.44l-1.37,0.72v24.26c3.41,0.53,6,0.79,7.78,0.79
		c3.89,0,6.61-1.1,8.17-3.31c1.56-2.21,2.34-5.81,2.34-10.8c0-4.99-0.71-8.54-2.12-10.66C241.84,30.07,239.77,29.02,237.03,29.02z"
		/>
</g>
<g>
	<path style="fill:#FFFFFF;" d="M252.65,25.75v-0.98h4v0.98h-1.44v4.46h-1.1v-4.46H252.65z"/>
	<path style="fill:#FFFFFF;" d="M257.34,30.22v-5.44h1.88l0.96,3.97l0.96-3.97h1.88v5.44h-1.1v-4.21h-0.12l-1.06,3.97h-1.1
		l-1.06-3.97h-0.12v4.21H257.34z"/>
</g>
</svg>
